HIERARCHY
ROOT hip
{
  OFFSET -0.41909 39.8089 0.161339
  CHANNELS 6 Xposition Yposition Zposition Zrotation Xrotation Yrotation
  JOINT abdomen
  {
    OFFSET 0 7.2397 0
    CHANNELS 6 Xposition Yposition Zposition Zrotation Xrotation Yrotation
    JOINT chest
    {
      OFFSET 0 16.546 0
      CHANNELS 6 Xposition Yposition Zposition Zrotation Xrotation Yrotation
      JOINT neck
      {
        OFFSET 0 34.2149 0
        CHANNELS 6 Xposition Yposition Zposition Zrotation Xrotation Yrotation
        JOINT head
        {
          OFFSET 0 6.2923 0
          CHANNELS 6 Xposition Yposition Zposition Zrotation Xrotation Yrotation
          End Site
          {
            OFFSET 0 21.2161 0
          }
        }
      }
      JOINT lCollar
      {
        OFFSET 4.0639 26.6115 -1.1234
        CHANNELS 6 Xposition Yposition Zposition Zrotation Xrotation Yrotation
        JOINT lShldr
        {
          OFFSET 14.1772 0 0
          CHANNELS 6 Xposition Yposition Zposition Zrotation Xrotation Yrotation
          JOINT lForeArm
          {
            OFFSET 26.1234 0 0
            CHANNELS 6 Xposition Yposition Zposition Zrotation Xrotation Yrotation
            JOINT lHand
            {
              OFFSET 27.7188 0 0
              CHANNELS 6 Xposition Yposition Zposition Zrotation Xrotation Yrotation
              JOINT lThumb1
              {
                OFFSET 2.2979 -0.4685 1.8313
                CHANNELS 6 Xposition Yposition Zposition Zrotation Xrotation Yrotation
                JOINT lThumb2
                {
                  OFFSET 5.2953 0 0
                  CHANNELS 6 Xposition Yposition Zposition Zrotation Xrotation Yrotation
                  JOINT lThumb3
                  {
                    OFFSET 3.0181 0 0
                    CHANNELS 6 Xposition Yposition Zposition Zrotation Xrotation Yrotation
                    End Site
                    {
                      OFFSET 2.6294 0 0
                    }
                  }
                }
              }
              JOINT lIndex1
              {
                OFFSET 9.3793 0.2991 2.5924
                CHANNELS 6 Xposition Yposition Zposition Zrotation Xrotation Yrotation
                JOINT lIndex2
                {
                  OFFSET 4.3461 0 0
                  CHANNELS 6 Xposition Yposition Zposition Zrotation Xrotation Yrotation
                  JOINT lIndex3
                  {
                    OFFSET 2.1666 0 0
                    CHANNELS 6 Xposition Yposition Zposition Zrotation Xrotation Yrotation
                    End Site
                    {
                      OFFSET 2.2048 0 0
                    }
                  }
                }
              }
              JOINT lMid1
              {
                OFFSET 9.4769 0.8376 0.2947
                CHANNELS 6 Xposition Yposition Zposition Zrotation Xrotation Yrotation
                JOINT lMid2
                {
                  OFFSET 4.772 0 0
                  CHANNELS 6 Xposition Yposition Zposition Zrotation Xrotation Yrotation
                  JOINT lMid3
                  {
                    OFFSET 2.8722 0 0
                    CHANNELS 6 Xposition Yposition Zposition Zrotation Xrotation Yrotation
                    End Site
                    {
                      OFFSET 2.0959 0 0
                    }
                  }
                }
              }
              JOINT lRing1
              {
                OFFSET 8.6586 1.0176 -1.7016
                CHANNELS 6 Xposition Yposition Zposition Zrotation Xrotation Yrotation
                JOINT lRing2
                {
                  OFFSET 4.5461 0 0
                  CHANNELS 6 Xposition Yposition Zposition Zrotation Xrotation Yrotation
                  JOINT lRing3
                  {
                    OFFSET 2.506 0 0
                    CHANNELS 6 Xposition Yposition Zposition Zrotation Xrotation Yrotation
                    End Site
                    {
                      OFFSET 2.2023 0 0
                    }
                  }
                }
              }
              JOINT lPinky1
              {
                OFFSET 7.6901 0.6618 -3.9096
                CHANNELS 6 Xposition Yposition Zposition Zrotation Xrotation Yrotation
                JOINT lPinky2
                {
                  OFFSET 3.2119 0 0
                  CHANNELS 6 Xposition Yposition Zposition Zrotation Xrotation Yrotation
                  JOINT lPinky3
                  {
                    OFFSET 1.924 0 0
                    CHANNELS 6 Xposition Yposition Zposition Zrotation Xrotation Yrotation
                    End Site
                    {
                      OFFSET 1.7829 0 0
                    }
                  }
                }
              }
            }
          }
        }
      }
      JOINT rCollar
      {
        OFFSET -4.0677 26.6109 -1.1234
        CHANNELS 6 Xposition Yposition Zposition Zrotation Xrotation Yrotation
        JOINT rShldr
        {
          OFFSET -14.1772 0 0
          CHANNELS 6 Xposition Yposition Zposition Zrotation Xrotation Yrotation
          JOINT rForeArm
          {
            OFFSET -26.1234 0 0
            CHANNELS 6 Xposition Yposition Zposition Zrotation Xrotation Yrotation
            JOINT rHand
            {
              OFFSET -27.7188 0 0
              CHANNELS 6 Xposition Yposition Zposition Zrotation Xrotation Yrotation
              JOINT rThumb1
              {
                OFFSET -2.2979 -0.4684 1.8313
                CHANNELS 6 Xposition Yposition Zposition Zrotation Xrotation Yrotation
                JOINT rThumb2
                {
                  OFFSET -5.2953 0 0
                  CHANNELS 6 Xposition Yposition Zposition Zrotation Xrotation Yrotation
                  JOINT rThumb3
                  {
                    OFFSET -3.0181 0 0
                    CHANNELS 6 Xposition Yposition Zposition Zrotation Xrotation Yrotation
                    End Site
                    {
                      OFFSET -2.6294 0 0
                    }
                  }
                }
              }
              JOINT rIndex1
              {
                OFFSET -9.3793 0.2991 2.5924
                CHANNELS 6 Xposition Yposition Zposition Zrotation Xrotation Yrotation
                JOINT rIndex2
                {
                  OFFSET -4.3461 0 0
                  CHANNELS 6 Xposition Yposition Zposition Zrotation Xrotation Yrotation
                  JOINT rIndex3
                  {
                    OFFSET -2.1666 0 0
                    CHANNELS 6 Xposition Yposition Zposition Zrotation Xrotation Yrotation
                    End Site
                    {
                      OFFSET -2.2048 0 0
                    }
                  }
                }
              }
              JOINT rMid1
              {
                OFFSET -9.4769 0.8376 0.2947
                CHANNELS 6 Xposition Yposition Zposition Zrotation Xrotation Yrotation
                JOINT rMid2
                {
                  OFFSET -4.772 0 0
                  CHANNELS 6 Xposition Yposition Zposition Zrotation Xrotation Yrotation
                  JOINT rMid3
                  {
                    OFFSET -2.8722 0 0
                    CHANNELS 6 Xposition Yposition Zposition Zrotation Xrotation Yrotation
                    End Site
                    {
                      OFFSET -2.0959 0 0
                    }
                  }
                }
              }
              JOINT rRing1
              {
                OFFSET -8.6586 1.0176 -1.7016
                CHANNELS 6 Xposition Yposition Zposition Zrotation Xrotation Yrotation
                JOINT rRing2
                {
                  OFFSET -4.5461 0 0
                  CHANNELS 6 Xposition Yposition Zposition Zrotation Xrotation Yrotation
                  JOINT rRing3
                  {
                    OFFSET -2.506 0 0
                    CHANNELS 6 Xposition Yposition Zposition Zrotation Xrotation Yrotation
                    End Site
                    {
                      OFFSET -2.2023 0 0
                    }
                  }
                }
              }
              JOINT rPinky1
              {
                OFFSET -7.6901 0.6618 -3.9096
                CHANNELS 6 Xposition Yposition Zposition Zrotation Xrotation Yrotation
                JOINT rPinky2
                {
                  OFFSET -3.2119 0 0
                  CHANNELS 6 Xposition Yposition Zposition Zrotation Xrotation Yrotation
                  JOINT rPinky3
                  {
                    OFFSET -1.924 0 0
                    CHANNELS 6 Xposition Yposition Zposition Zrotation Xrotation Yrotation
                    End Site
                    {
                      OFFSET -1.7829 0 0
                    }
                  }
                }
              }
            }
          }
        }
      }
    }
  }
  JOINT lThigh
  {
    OFFSET 8.7379 -0.0029 0.0005
    CHANNELS 6 Xposition Yposition Zposition Zrotation Xrotation Yrotation
    JOINT lShin
    {
      OFFSET 0 -46.6676 0
      CHANNELS 6 Xposition Yposition Zposition Zrotation Xrotation Yrotation
      JOINT lFoot
      {
        OFFSET 0 -40.1476 0
        CHANNELS 6 Xposition Yposition Zposition Zrotation Xrotation Yrotation
        JOINT lToes
        {
          OFFSET 0 -8.8846 14.2294
          CHANNELS 6 Xposition Yposition Zposition Zrotation Xrotation Yrotation
          End Site
          {
            OFFSET 0 0 6.296
          }
        }
      }
    }
  }
  JOINT rThigh
  {
    OFFSET -8.7379 0.0029 -0.0005
    CHANNELS 6 Xposition Yposition Zposition Zrotation Xrotation Yrotation
    JOINT rShin
    {
      OFFSET 0 -46.6676 0
      CHANNELS 6 Xposition Yposition Zposition Zrotation Xrotation Yrotation
      JOINT rFoot
      {
        OFFSET 0 -40.1476 0
        CHANNELS 6 Xposition Yposition Zposition Zrotation Xrotation Yrotation
        JOINT rToes
        {
          OFFSET 0 -8.8846 14.2294
          CHANNELS 6 Xposition Yposition Zposition Zrotation Xrotation Yrotation
          End Site
          {
            OFFSET 0 0 6.296
          }
        }
      }
    }
  }
}
MOTION
Frames:	4
Frame Time:	0.0333333
-0.200797 39.6383 -0.0454264 -7.03807 -13.7362 -42.6511 0 7.2397 0 -2.97482 15.1524 7.54509 -1.11022e-16 16.546 -2.22045e-16 -8.6087 31.9232 13.322 2.22045e-16 34.2149 -7.10543e-15 3.84396 29.3401 1.96668 -1.77636e-15 6.2923 0 3.47704 -37.4675 18.9947 4.0639 26.6115 -1.1234 4.61155 -8.17791 -3.87718 14.1772 0 3.55271e-15 -70.5714 6.42722 -61.0602 26.1234 0 7.10543e-15 -104.539 -15.7472 -93.7799 27.7188 -7.10543e-15 0 9.44279 -28.6752 6.46946 2.2979 -0.4685 1.8313 37.184 70.9488 -65.3921 5.2953 -1.06581e-14 0 -13.655 2.43915 4.23129 3.0181 7.10543e-15 7.10543e-15 40.575 -4.2621 10.4488 9.3793 0.2991 2.5924 -15.7189 8.26171 2.10857 4.3461 7.10543e-15 0 -27.9757 -1.11868 5.5966 2.1666 0 0 -30.2284 -1.57776 5.42757 9.4769 0.8376 0.2947 -15.5574 6.19104 1.80127 4.772 -7.10543e-15 0 -44.2332 -4.15799 10.4286 2.8722 -3.55271e-15 3.55271e-15 -38.4625 -3.11874 10.6456 8.6586 1.0176 -1.7016 -12.8095 4.05758 0.0154702 4.5461 -1.42109e-14 0 -68.2419 -4.98725 7.35473 2.506 0 7.10543e-15 -26.184 0.226376 12.1003 7.6901 0.6618 -3.9096 -1.69592 -16.7036 -0.578557 3.2119 0 0 -48.2121 -6.75384 15.0249 1.924 4.44089e-15 0 -25.7169 -1.92459 10.2066 -4.0677 26.6109 -1.1234 -9.30815 -11.8677 -10.8976 -14.1772 0 -3.55271e-15 39.7058 40.4727 33.177 -26.1234 0 0 29.6443 1.34184 119.741 -27.7188 3.55271e-15 -1.42109e-14 -10.8067 -8.78432 14.2583 -2.2979 -0.4684 1.8313 -92.2023 72.3373 115.748 -5.2953 -1.42109e-14 0 20.8059 -0.164377 -7.80924 -3.0181 1.42109e-14 0 7.44356 -1.87409 -23.1505 -9.3793 0.2991 2.5924 -0.483223 -1.40429 -4.46205 -4.3461 -3.55271e-15 1.42109e-14 11.3885 0.0663242 -2.10806 -2.1666 -3.55271e-15 0 35.2115 -1.89997 -5.61245 -9.4769 0.8376 0.2947 -5.74454 -0.492494 -10.345 -4.772 1.77636e-15 0 99.6664 -15.9162 -13.5329 -2.8722 0 -1.42109e-14 64.9769 -7.76867 -13.6635 -8.6586 1.0176 -1.7016 4.03541 -11.2401 -9.54019 -4.5461 -3.55271e-15 0 113.305 -9.33455 -6.15035 -2.506 0 -2.84217e-14 71.4335 -4.5206 -7.13529 -7.6901 0.6618 -3.9096 -3.28622 -26.781 -8.59917 -3.2119 7.10543e-15 0 88.1866 -18.3453 -18.9248 -1.924 0 0 68.3114 -11.8989 -18.9734 8.7379 -0.0029 0.0005 74.8769 -51.0997 64.2601 0 -46.6676 -7.10543e-15 177.861 52.5925 -160.594 1.77636e-15 -40.1476 -3.55271e-15 -19.7706 -27.4159 -1.57384 3.55271e-15 -8.8846 14.2294 0.0001 7.45443e-17 9.54166e-15 -8.7379 0.0029 -0.0005 -23.2693 -3.78797 24.9463 0 -46.6676 0 -166.991 55.4996 157.114 0 -40.1476 1.77636e-15 -3.41821 -46.7058 -6.33959 3.55271e-15 -8.8846 14.2294 -1.59028e-15 0 -3.57812e-15 
-0.194816 39.634 -0.0509684 -7.06094 -13.7608 -42.6511 4.44089e-16 7.2397 0 -2.99108 15.2246 7.58885 -2.22045e-16 16.546 0 -8.66628 32.0624 13.4314 7.77156e-16 34.2149 0 3.87411 29.3088 1.96479 -8.88178e-16 6.2923 -1.42109e-14 3.35921 -37.5779 18.8318 4.0639 26.6115 -1.1234 4.59901 -8.0775 -3.93315 14.1772 0 0 -70.5425 6.4329 -61.3458 26.1234 0 0 -104.392 -15.8319 -93.8003 27.7188 -7.10543e-15 0 9.41809 -28.7169 6.56484 2.2979 -0.4685 1.8313 37.184 70.9488 -65.3921 5.2953 -3.55271e-15 0 -13.655 2.43915 4.23129 3.0181 -7.10543e-15 7.10543e-15 40.575 -4.2621 10.4488 9.3793 0.2991 2.5924 -15.7189 8.26171 2.10857 4.3461 -7.10543e-15 -3.55271e-15 -27.9757 -1.11868 5.5966 2.1666 -3.55271e-15 -3.55271e-15 -30.2284 -1.57776 5.42757 9.4769 0.8376 0.2947 -15.5574 6.19104 1.80127 4.772 -1.42109e-14 0 -44.2332 -4.15799 10.4286 2.8722 -3.55271e-15 7.10543e-15 -38.4625 -3.11874 10.6456 8.6586 1.0176 -1.7016 -12.8095 4.05758 0.0154702 4.5461 1.42109e-14 7.10543e-15 -68.2419 -4.98725 7.35473 2.506 -7.10543e-15 1.06581e-14 -26.184 0.226376 12.1003 7.6901 0.6618 -3.9096 -1.69592 -16.7036 -0.578557 3.2119 0 0 -48.2121 -6.75384 15.0249 1.924 2.66454e-15 0 -25.7169 -1.92459 10.2066 -4.0677 26.6109 -1.1234 -9.3386 -11.8924 -10.9809 -14.1772 0 0 39.5973 40.472 33.1978 -26.1234 -7.10543e-15 0 29.6837 1.35465 119.763 -27.7188 -3.55271e-15 -1.42109e-14 -10.8747 -8.74437 14.448 -2.2979 -0.4684 1.8313 -92.2023 72.3373 115.748 -5.2953 7.10543e-15 -7.10543e-15 20.8059 -0.164377 -7.80924 -3.0181 0 0 7.44356 -1.87409 -23.1505 -9.3793 0.2991 2.5924 -0.483223 -1.40429 -4.46205 -4.3461 0 0 11.3885 0.0663242 -2.10806 -2.1666 -3.55271e-15 -1.42109e-14 35.2115 -1.89997 -5.61245 -9.4769 0.8376 0.2947 -5.74454 -0.492494 -10.345 -4.772 0 0 99.6664 -15.9162 -13.5329 -2.8722 -3.55271e-15 0 64.9769 -7.76867 -13.6635 -8.6586 1.0176 -1.7016 4.03541 -11.2401 -9.54019 -4.5461 -1.77636e-15 -1.42109e-14 113.305 -9.33455 -6.15035 -2.506 0 0 71.4335 -4.5206 -7.13529 -7.6901 0.6618 -3.9096 -3.28622 -26.781 -8.59917 -3.2119 -1.77636e-15 0 88.1866 -18.3453 -18.9248 -1.924 -7.10543e-15 -1.42109e-14 68.3114 -11.8989 -18.9734 8.7379 -0.0029 0.0005 74.8655 -51.0865 64.2525 1.77636e-15 -46.6676 7.10543e-15 177.86 52.5925 -160.601 -8.88178e-16 -40.1476 -3.55271e-15 -19.7364 -27.4145 -1.56521 -3.55271e-15 -8.8846 14.2294 0.0001 4.96962e-17 -0 -8.7379 0.0029 -0.0005 -23.2733 -3.76598 24.9441 -3.55271e-15 -46.6676 8.88178e-16 -166.976 55.4885 157.105 0 -40.1476 -3.55271e-15 -3.42163 -46.7082 -6.34087 3.55271e-15 -8.8846 14.2294 7.95139e-16 1.59028e-15 6.95746e-15 
-0.190851 39.6311 -0.0546229 -7.07567 -13.7765 -42.6511 -4.44089e-16 7.2397 -1.77636e-15 -3.00517 15.2857 7.62804 -2.22045e-16 16.546 0 -8.71598 32.18 13.5289 -2.22045e-16 34.2149 0 3.89082 29.2913 1.96382 0 6.2923 -1.42109e-14 3.27753 -37.7178 18.6992 4.0639 26.6115 -1.1234 4.58907 -7.97672 -3.97888 14.1772 1.42109e-14 7.10543e-15 -70.5191 6.44964 -61.5932 26.1234 0 0 -104.231 -15.9015 -93.8141 27.7188 -7.10543e-15 0 9.38851 -28.7746 6.65701 2.2979 -0.4685 1.8313 37.184 70.9488 -65.3921 5.2953 0 0 -13.655 2.43915 4.23129 3.0181 7.10543e-15 -1.42109e-14 40.575 -4.2621 10.4488 9.3793 0.2991 2.5924 -15.7189 8.26171 2.10857 4.3461 -7.10543e-15 0 -27.9757 -1.11868 5.5966 2.1666 -3.55271e-15 0 -30.2284 -1.57776 5.42757 9.4769 0.8376 0.2947 -15.5574 6.19104 1.80127 4.772 -7.10543e-15 0 -44.2332 -4.15799 10.4286 2.8722 0 0 -38.4625 -3.11874 10.6456 8.6586 1.0176 -1.7016 -12.8095 4.05758 0.0154702 4.5461 -7.10543e-15 0 -68.2419 -4.98725 7.35473 2.506 -7.10543e-15 -3.55271e-15 -26.184 0.226376 12.1003 7.6901 0.6618 -3.9096 -1.69592 -16.7036 -0.578557 3.2119 0 7.10543e-15 -48.2121 -6.75384 15.0249 1.924 -8.88178e-16 0 -25.7169 -1.92459 10.2066 -4.0677 26.6109 -1.1234 -9.36243 -11.9103 -11.0463 -14.1772 0 0 39.5058 40.4693 33.196 -26.1234 -7.10543e-15 0 29.6788 1.35869 119.776 -27.7188 3.55271e-15 1.42109e-14 -10.9412 -8.74528 14.6268 -2.2979 -0.4684 1.8313 -92.2023 72.3373 115.748 -5.2953 7.10543e-15 -7.10543e-15 20.8059 -0.164377 -7.80924 -3.0181 0 -7.10543e-15 7.44356 -1.87409 -23.1505 -9.3793 0.2991 2.5924 -0.483223 -1.40429 -4.46205 -4.3461 -1.77636e-15 2.84217e-14 11.3885 0.0663242 -2.10806 -2.1666 -7.10543e-15 0 35.2115 -1.89997 -5.61245 -9.4769 0.8376 0.2947 -5.74454 -0.492494 -10.345 -4.772 3.55271e-15 0 99.6664 -15.9162 -13.5329 -2.8722 -3.55271e-15 -1.42109e-14 64.9769 -7.76867 -13.6635 -8.6586 1.0176 -1.7016 4.03541 -11.2401 -9.54019 -4.5461 -1.77636e-15 0 113.305 -9.33455 -6.15035 -2.506 0 -1.42109e-14 71.4335 -4.5206 -7.13529 -7.6901 0.6618 -3.9096 -3.28622 -26.781 -8.59917 -3.2119 -3.55271e-15 1.42109e-14 88.1866 -18.3453 -18.9248 -1.924 0 0 68.3114 -11.8989 -18.9734 8.7379 -0.0029 0.0005 74.8652 -51.0702 64.2597 -1.77636e-15 -46.6676 0 177.86 52.5923 -160.611 -8.88178e-16 -40.1476 0 -19.7038 -27.4172 -1.55795 -1.77636e-15 -8.8846 14.2294 0.0001 4.96962e-17 3.18055e-15 -8.7379 0.0029 -0.0005 -23.2759 -3.75209 24.9429 3.55271e-15 -46.6676 0 -166.967 55.4811 157.1 3.55271e-15 -40.1476 1.77636e-15 -3.42384 -46.7097 -6.34168 -3.55271e-15 -8.8846 14.2294 -7.95139e-16 1.59028e-15 -1.78906e-15 
-0.188418 39.6293 -0.0568278 -7.08431 -13.7858 -42.651 4.44089e-16 7.2397 -3.55271e-15 -3.01762 15.3383 7.6634 2.22045e-16 16.546 0 -8.7596 32.2811 13.6165 2.55351e-15 34.2149 7.10543e-15 3.8979 29.2835 1.9633 8.88178e-16 6.2923 0 3.22086 -37.8759 18.5888 4.0639 26.6115 -1.1234 4.58077 -7.87661 -4.01826 14.1772 0 0 -70.4999 6.47156 -61.809 26.1234 0 0 -104.065 -15.9565 -93.8222 27.7188 0 7.10543e-15 9.35642 -28.839 6.74383 2.2979 -0.4685 1.8313 37.184 70.9488 -65.3921 5.2953 3.55271e-15 -7.10543e-15 -13.655 2.43915 4.23129 3.0181 0 7.10543e-15 40.575 -4.2621 10.4488 9.3793 0.2991 2.5924 -15.7189 8.26171 2.10857 4.3461 -7.10543e-15 0 -27.9757 -1.11868 5.5966 2.1666 3.55271e-15 7.10543e-15 -30.2284 -1.57776 5.42757 9.4769 0.8376 0.2947 -15.5574 6.19104 1.80127 4.772 0 7.10543e-15 -44.2332 -4.15799 10.4286 2.8722 3.55271e-15 0 -38.4625 -3.11874 10.6456 8.6586 1.0176 -1.7016 -12.8095 4.05758 0.0154702 4.5461 -7.10543e-15 0 -68.2419 -4.98725 7.35473 2.506 0 7.10543e-15 -26.184 0.226376 12.1003 7.6901 0.6618 -3.9096 -1.69592 -16.7036 -0.578557 3.2119 1.42109e-14 7.10543e-15 -48.2121 -6.75384 15.0249 1.924 -2.66454e-15 0 -25.7169 -1.92459 10.2066 -4.0677 26.6109 -1.1234 -9.38104 -11.923 -11.0977 -14.1772 0 0 39.4272 40.4691 33.1781 -26.1234 7.10543e-15 7.10543e-15 29.6537 1.35927 119.786 -27.7188 0 0 -11.0036 -8.75994 14.7976 -2.2979 -0.4684 1.8313 -92.2023 72.3373 115.748 -5.2953 -7.10543e-15 -7.10543e-15 20.8059 -0.164377 -7.80924 -3.0181 0 0 7.44356 -1.87409 -23.1505 -9.3793 0.2991 2.5924 -0.483223 -1.40429 -4.46205 -4.3461 0 0 11.3885 0.0663242 -2.10806 -2.1666 0 0 35.2115 -1.89997 -5.61245 -9.4769 0.8376 0.2947 -5.74454 -0.492494 -10.345 -4.772 0 0 99.6664 -15.9162 -13.5329 -2.8722 0 -1.42109e-14 64.9769 -7.76867 -13.6635 -8.6586 1.0176 -1.7016 4.03541 -11.2401 -9.54019 -4.5461 1.77636e-15 0 113.305 -9.33455 -6.15035 -2.506 0 1.42109e-14 71.4335 -4.5206 -7.13529 -7.6901 0.6618 -3.9096 -3.28622 -26.781 -8.59917 -3.2119 5.32907e-15 1.42109e-14 88.1866 -18.3453 -18.9248 -1.924 0 0 68.3114 -11.8989 -18.9734 8.7379 -0.0029 0.0005 74.8728 -51.0517 64.2776 -1.77636e-15 -46.6676 0 177.859 52.5921 -160.623 -2.66454e-15 -40.1476 7.10543e-15 -19.6725 -27.423 -1.55174 -1.77636e-15 -8.8846 14.2294 0.0001 0 3.18055e-15 -8.7379 0.0029 -0.0005 -23.2775 -3.74418 24.9422 -7.10543e-15 -46.6676 8.88178e-16 -166.962 55.4767 157.097 0 -40.1476 -1.77636e-15 -3.42517 -46.7107 -6.34216 3.55271e-15 -8.8846 14.2294 2.38542e-15 4.77083e-15 -4.37326e-15 
